name D:\school\WTK\thesis\model\3dpredictsim\Results\MidTarsalJoint\Fal_s1_bCst_PF_Natali2010_ls150_MT_k250_d010_MTP_T5_ig23.mot
datacolumns 128
datarows 4
range 1.15037751 1.18488884
endheader
time	pelvis_tilt	pelvis_list	pelvis_rotation	pelvis_tx	pelvis_ty	pelvis_tz	hip_flexion_l	hip_adduction_l	hip_rotation_l	hip_flexion_r	hip_adduction_r	hip_rotation_r	knee_angle_l	knee_angle_r	ankle_angle_l	ankle_angle_r	subtalar_angle_l	subtalar_angle_r	mtj_angle_l	mtj_angle_r	mtp_angle_l	mtp_angle_r	lumbar_extension	lumbar_bending	lumbar_rotation	arm_flex_l	arm_add_l	arm_rot_l	arm_flex_r	arm_add_r	arm_rot_r	elbow_flex_l	elbow_flex_r	pro_sup_l	pro_sup_r	glut_med1_l/activation	glut_med2_l/activation	glut_med3_l/activation	glut_min1_l/activation	glut_min2_l/activation	glut_min3_l/activation	semimem_l/activation	semiten_l/activation	bifemlh_l/activation	bifemsh_l/activation	sar_l/activation	add_long_l/activation	add_brev_l/activation	add_mag1_l/activation	add_mag2_l/activation	add_mag3_l/activation	tfl_l/activation	pect_l/activation	grac_l/activation	glut_max1_l/activation	glut_max2_l/activation	glut_max3_l/activation	iliacus_l/activation	psoas_l/activation	quad_fem_l/activation	gem_l/activation	peri_l/activation	rect_fem_l/activation	vas_med_l/activation	vas_int_l/activation	vas_lat_l/activation	med_gas_l/activation	lat_gas_l/activation	soleus_l/activation	tib_post_l/activation	flex_dig_l/activation	flex_hal_l/activation	tib_ant_l/activation	per_brev_l/activation	per_long_l/activation	per_tert_l/activation	ext_dig_l/activation	ext_hal_l/activation	ercspn_l/activation	intobl_l/activation	extobl_l/activation	glut_med1_r/activation	glut_med2_r/activation	glut_med3_r/activation	glut_min1_r/activation	glut_min2_r/activation	glut_min3_r/activation	semimem_r/activation	semiten_r/activation	bifemlh_r/activation	bifemsh_r/activation	sar_r/activation	add_long_r/activation	add_brev_r/activation	add_mag1_r/activation	add_mag2_r/activation	add_mag3_r/activation	tfl_r/activation	pect_r/activation	grac_r/activation	glut_max1_r/activation	glut_max2_r/activation	glut_max3_r/activation	iliacus_r/activation	psoas_r/activation	quad_fem_r/activation	gem_r/activation	peri_r/activation	rect_fem_r/activation	vas_med_r/activation	vas_int_r/activation	vas_lat_r/activation	med_gas_r/activation	lat_gas_r/activation	soleus_r/activation	tib_post_r/activation	flex_dig_r/activation	flex_hal_r/activation	tib_ant_r/activation	per_brev_r/activation	per_long_r/activation	per_tert_r/activation	ext_dig_r/activation	ext_hal_r/activation	ercspn_r/activation	intobl_r/activation	extobl_r/activation	
          1.15037751	         -2.92797615	         -2.33741284	          5.81655291	          1.43797189	          0.91908099	         -0.00099724	        -15.96254812	         -1.64629467	          7.52344668	         28.68464322	          4.07127839	         -1.38214180	        -12.57719523	        -12.18668580	         -4.66979541	          3.93065825	         13.00606034	         -3.07385199	          3.81834931	         -0.02731880	         13.55914878	         -0.85310999	         -1.83260684	          0.81015335	         -1.99210715	          4.29615037	        -13.49206550	         17.09743072	         -5.34309372	        -13.47724107	          8.33081306	         37.26126124	         14.51853581	         86.51662706	         86.51662706	          0.25113023	          0.08462789	          0.05297643	          0.27907886	          0.17403997	          0.08646934	          0.05000647	          0.05000085	          0.05000099	          0.05000083	          0.08464431	          0.13907264	          0.12501705	          0.07100478	          0.05001400	          0.05000480	          0.23482634	          0.10270302	          0.05958407	          0.05000582	          0.05000318	          0.05000268	          0.29604808	          0.48223474	          0.06492071	          0.05959829	          0.05958716	          0.17069193	          0.08971872	          0.14322623	          0.14322772	          0.22313594	          0.30429906	          0.26942267	          0.19906718	          0.18360385	          0.24910998	          0.05000018	          0.05989451	          0.14114898	          0.05000046	          0.05000025	          0.05000063	          0.05571760	          0.07101155	          0.06370369	          0.05000012	          0.05000018	          0.05001269	          0.05000024	          0.05000028	          0.05000032	          0.05000036	          0.05000043	          0.14937265	          0.05000046	          0.05958381	          0.10085288	          0.24794184	          0.34896041	          0.21906577	          0.08543044	          0.05000029	          0.07863174	          0.10446859	          0.05000216	          0.07770901	          0.13293493	          0.05003068	          0.05958727	          0.57218358	          0.20340242	          0.16065324	          0.07101199	          0.22712079	          0.22719220	          0.19285763	          0.05000003	          0.05000009	          0.05000001	          0.05162305	          0.05000391	          0.05000749	          0.57849628	          0.19105807	          0.20415851	          0.36437734	          0.51823601	          0.07358576	          0.05000005	          0.09380409	          0.08384703	
          1.16188129	         -2.92097990	         -2.42932963	          6.02019611	          1.45586859	          0.91814046	         -0.00082982	        -15.68010079	         -1.92414689	          7.30564832	         27.78753873	          4.40429662	         -1.11970688	        -14.70003080	        -12.40256634	         -5.51428055	          3.45336101	         14.01160422	         -3.51995232	          2.55145178	         -0.20183056	         15.46566978	         -0.87056958	         -1.60942608	          1.03718378	         -2.06242287	          3.82946553	        -13.51615575	         17.27705655	         -6.30424811	        -13.49294065	          8.07430694	         38.49559100	         14.26773189	         86.51662706	         86.51662706	          0.37188714	          0.07101273	          0.05000077	          0.23418074	          0.14604004	          0.07255797	          0.05000537	          0.05000097	          0.05000080	          0.05000044	          0.07102706	          0.14193248	          0.18870903	          0.05958763	          0.05818057	          0.05000999	          0.19704707	          0.08618334	          0.05001780	          0.05002800	          0.05002580	          0.05003195	          0.24841908	          0.44916202	          0.05958206	          0.05001126	          0.05000070	          0.14323046	          0.08380044	          0.12018404	          0.12018509	          0.18723707	          0.25534241	          0.22607703	          0.16704064	          0.15406529	          0.20903251	          0.09754509	          0.12131380	          0.17347713	          0.05000044	          0.12160111	          0.05000159	          0.06373693	          0.05958698	          0.05958651	          0.27536493	          0.28559037	          0.05000031	          0.05000120	          0.05000121	          0.30993005	          0.08407867	          0.07979106	          0.14199083	          0.05000042	          0.05000201	          0.08462749	          0.20805242	          0.29281874	          0.18382246	          0.12040287	          0.05000130	          0.06598644	          0.08767163	          0.05000088	          0.07755707	          0.11154824	          0.05000122	          0.05000118	          0.48012879	          0.17067856	          0.24432493	          0.05958737	          0.19058106	          0.19064100	          0.16183023	          0.05841029	          0.05655610	          0.05958359	          0.05000025	          0.05000076	          0.05000088	          0.58673174	          0.34808239	          0.17167335	          0.34682790	          0.56249134	          0.06174708	          0.05000010	          0.09970437	          0.07035746	
          1.17338506	         -2.91125262	         -2.52277274	          6.18892331	          1.47385673	          0.91715393	         -0.00065568	        -15.29767028	         -2.18912486	          7.09330773	         26.78113964	          4.68234527	         -0.84634319	        -16.96881091	        -12.59476770	         -6.42718653	          3.03650082	         14.93136783	         -3.98662835	          1.18620206	         -0.18047902	         17.16581836	         -0.82700041	         -1.38735514	          1.27031710	         -2.12262600	          3.31463951	        -13.54523986	         17.38785339	         -7.23887281	        -13.51457101	          7.90080780	         39.71113352	         14.01931604	         86.51662706	         86.51662706	          0.31205711	          0.05958803	          0.05000010	          0.23090671	          0.12254484	          0.06088474	          0.05000335	          0.05000032	          0.05000033	          0.05000031	          0.05960091	          0.14426175	          0.15835014	          0.05000215	          0.05000253	          0.05000502	          0.16534583	          0.07231962	          0.05000066	          0.05000196	          0.05000113	          0.05000065	          0.20845267	          0.39747293	          0.05000014	          0.05000071	          0.05000036	          0.12018709	          0.08301259	          0.10084977	          0.10085027	          0.15711373	          0.21426208	          0.18970498	          0.14016664	          0.12927901	          0.17540284	          0.19065879	          0.13850458	          0.14556785	          0.30010558	          0.20154309	          0.05000452	          0.09149138	          0.05000044	          0.05000014	          0.39028781	          0.39125568	          0.34465131	          0.21296260	          0.21822215	          0.26007053	          0.07055655	          0.10794917	          0.11914708	          0.07101047	          0.05000144	          0.07101243	          0.17458035	          0.24570976	          0.20443788	          0.15960016	          0.05000063	          0.05537169	          0.08926397	          0.23105285	          0.17219146	          0.14410924	          0.05000024	          0.05000025	          0.40288412	          0.14321943	          0.20501805	          0.05000079	          0.18807605	          0.20455364	          0.14555958	          0.05000012	          0.05000019	          0.05000003	          0.05000004	          0.05000029	          0.05000030	          0.65370162	          0.29208194	          0.14408470	          0.60756014	          0.58109577	          0.28526704	          0.07830155	          0.08366364	          0.05903815	
          1.18488884	         -2.89953397	         -2.61223716	          6.32383170	          1.49166232	          0.91620206	         -0.00044902	        -14.76641015	         -2.42767738	          6.88504351	         25.81494978	          4.96193752	         -0.57351246	        -19.44392659	        -12.84323129	         -7.38399975	          2.62965376	         15.73462170	         -4.46250339	         -0.10563932	         -0.21975293	         18.20660482	         -0.82123422	         -1.18853320	          1.50282075	         -2.17441813	          2.81212047	        -13.57784364	         17.47124697	         -8.09290599	        -13.53580332	          7.80593852	         40.84851648	         13.74418709	         86.51662706	         86.51662706	          0.26185252	          0.05000170	          0.05000044	          0.19375803	          0.10282965	          0.05108977	          0.05956342	          0.05000670	          0.05001188	          0.05000067	          0.05001313	          0.12127427	          0.20532610	          0.16070330	          0.06880735	          0.10087165	          0.13874505	          0.06068553	          0.05000857	          0.05000999	          0.05000782	          0.05000747	          0.17491616	          0.35282573	          0.05000081	          0.05000314	          0.05000078	          0.10085100	          0.06965739	          0.08462485	          0.08462523	          0.13183674	          0.17979090	          0.15918459	          0.11761635	          0.10848071	          0.14718379	          0.26467362	          0.11622178	          0.12214850	          0.35837442	          0.24434518	          0.14944440	          0.12165942	          0.05000005	          0.05000010	          0.49232785	          0.51990036	          0.49625222	          0.24492221	          0.35522557	          0.43403932	          0.06928620	          0.10107920	          0.09997962	          0.05958626	          0.05000063	          0.05958781	          0.14649340	          0.20618034	          0.20814879	          0.17863692	          0.05000061	          0.05000359	          0.07490367	          0.31446664	          0.23070228	          0.18715325	          0.05000014	          0.05000015	          0.33806686	          0.12017811	          0.24251261	          0.05000013	          0.29156458	          0.30058329	          0.23812958	          0.05000007	          0.05000018	          0.05000003	          0.10996008	          0.05141946	          0.05000362	          0.75571212	          0.24509086	          0.12090389	          0.50981411	          0.58418063	          0.31486440	          0.09953880	          0.07020358	          0.05000010	
